PathFileType	4	(x/y/z)	S08_P20_T14
DataRate	CameraRate	NumFrames	NumMarkers	Units	OrigDataRate	OrigDataStartFrame	OrigNumFrames
240	240	4	51	mm	240	198	394
Frame#	Time	Sternum			R.Acromium			L.Acromium			Top.Head			R.ASIS			L.ASIS			R.PSIS			L.PSIS			R.Great.Tro			L.Great.Tro			R.Iliac.Crest			L.Iliac.Crest			V.Sacral			R.Thigh.Upper.Post			R.Thigh.Lower.Ant			R.Thigh.Lower.Post			R.Thigh.Upper.Ant			R.Knee.Lat			R.Knee.Med			R.Shank.Upper.Post			R.Shank.Lower.Ant			R.Shank.Lower.Post			R.Shank.Upper.Ant			R.Ankle.Lat			R.Ankle.Med			R.Heel.Upper			R.Heel.Med			R.Heel.Lat			R.Toe.Lat			R.Toe.Med			R.Toe.Tip			L.Thigh.Upper.Post			L.Thigh.Lower.Ant			L.Thigh.Lower.Post			L.Thigh.Upper.Ant			L.Knee.Lat			L.Knee.Med			L.Shank.Upper.Post			L.Shank.Lower.Ant			L.Shank.Lower.Post			L.Shank.Upper.Ant			L.Ankle.Lat			L.Ankle.Med			L.Heel.Upper			L.Heel.Med			L.Heel.Lat			L.Toe.Lat			L.Toe.Med			L.Toe.Tip			Cervical.Spine			Back			
		X1	Y1	Z1	X2	Y2	Z2	X3	Y3	Z3	X4	Y4	Z4	X5	Y5	Z5	X6	Y6	Z6	X7	Y7	Z7	X8	Y8	Z8	X9	Y9	Z9	X10	Y10	Z10	X11	Y11	Z11	X12	Y12	Z12	X13	Y13	Z13	X14	Y14	Z14	X15	Y15	Z15	X16	Y16	Z16	X17	Y17	Z17	X18	Y18	Z18	X19	Y19	Z19	X20	Y20	Z20	X21	Y21	Z21	X22	Y22	Z22	X23	Y23	Z23	X24	Y24	Z24	X25	Y25	Z25	X26	Y26	Z26	X27	Y27	Z27	X28	Y28	Z28	X29	Y29	Z29	X30	Y30	Z30	X31	Y31	Z31	X32	Y32	Z32	X33	Y33	Z33	X34	Y34	Z34	X35	Y35	Z35	X36	Y36	Z36	X37	Y37	Z37	X38	Y38	Z38	X39	Y39	Z39	X40	Y40	Z40	X41	Y41	Z41	X42	Y42	Z42	X43	Y43	Z43	X44	Y44	Z44	X45	Y45	Z45	X46	Y46	Z46	X47	Y47	Z47	X48	Y48	Z48	X49	Y49	Z49	X50	Y50	Z50	X51	Y51	Z51	

198	0.82083	-304.12	1238.3	298.12	-409.83	1474.1	482.3	-442.4	1501.9	149.35	-412.22	1792	338.41	-328.6	1027.2	416.1	-337.62	1025.3	186.53	-532.1	1046.3	345.43	-532.28	1047	252.29	-392.52	916.73	488.45	-414.31	913.77	118.06	-423.5	1094.6	463.26	-433.23	1103.2	155.63	-547.88	1004.9	299.63	-423.57	714.04	468.69	-351.77	615.89	424.01	-420.6	625.49	446.32	-346.64	707.97	448.54	-394.76	519.48	416.11	-431.7	528.63	293.65	-479.59	340.76	422.47	-426.92	274.49	392.5	-488.72	264.91	410.37	-417.44	351.03	405.46	-508.91	102.07	366.06	-486.66	116.15	288.34	-562.4	67.725	322.62	-553.05	40.044	295.69	-555.73	44.626	357.57	NaN	NaN	NaN	-363.31	43.922	275.41	-296.85	56.95	320.58	-333.32	709.21	130.78	-215.2	666.08	143.47	-278.52	636.92	144.72	-266.4	737.26	124.21	-231.58	558.12	158.16	-211.72	555.75	282.32	-335.48	412.13	158.18	-299.54	306.78	167.74	-360.92	343.86	171.25	-279.05	379.52	155.66	-398.76	175.49	176.29	-364.85	169.02	257.94	-453.15	162.45	229.58	-448.22	125.75	258.68	-458.1	135.45	195.88	-299.95	71.65	145.84	-268.63	67.793	256.25	-208.49	66.693	201.76	-491.8	1530.8	315.89	-536.34	1249.4	322.62
199	0.825	-298.83	1238.2	298.07	-404.39	1474.1	482.24	-437.4	1501.8	149.34	-406.86	1792	338.35	-323.61	1026.9	416.08	-332.31	1025.3	186.44	-526.98	1046.2	345.09	-527.11	1046.9	251.94	-388.08	916.53	488.25	-408.87	913.96	117.68	-418.49	1094.4	463.07	-427.91	1103.3	155.5	-542.72	1004.9	299.2	-420.74	714.23	468.59	-349.71	615.54	423.96	-418.4	625.66	446.29	-343.81	707.57	448.56	-393.49	519.33	416.21	-430.18	528.68	293.65	-479.01	340.92	422.4	-426.46	274.55	392.62	-488.29	265.08	410.3	-416.8	351.02	405.53	-508.76	102.24	365.88	-486.26	116.31	288.22	-562.41	67.912	322.46	-552.86	40.092	295.63	-555.67	44.8	357.45	NaN	NaN	NaN	-363.22	43.858	275.39	-296.73	56.761	320.65	-327.59	709.53	130.74	-209.44	666.53	143.71	-272.73	637.33	144.89	-260.68	737.63	124.25	-225.44	558.57	158.55	-206.21	556.4	282.47	-325.95	409.5	158.04	-287.19	305.2	167.84	-349.53	340.56	171.13	-268.65	378.44	155.73	-382.73	171.13	176.08	-348.55	165.54	257.82	-436.71	156.4	229.38	-430.72	119.89	258.51	-440.89	129.25	195.75	-280.86	70.088	145.78	-249.42	67.296	256.21	-189.29	67.846	201.7	-486.47	1530.7	315.88	-531.1	1249.3	322.67
200	0.82917	-293.53	1238.1	298.02	-398.95	1474	482.18	-432.39	1501.6	149.32	-401.51	1791.8	338.28	-318.6	1026.4	416.04	-326.98	1025.3	186.33	-521.86	1046	344.76	-521.93	1046.9	251.59	-383.62	916.3	488.06	-403.43	914.09	117.31	-413.45	1094.1	462.88	-422.59	1103.3	155.37	-537.56	1004.7	298.78	-417.89	714.41	468.48	-347.64	615.17	423.91	-416.18	625.82	446.25	-340.98	707.17	448.58	-392.21	519.19	416.31	-428.61	528.72	293.64	-478.41	341.08	422.32	-425.99	274.61	392.72	-487.87	265.27	410.22	-416.15	351.01	405.59	-508.61	102.41	365.68	-485.84	116.46	288.1	-562.4	68.102	322.28	-552.65	40.14	295.55	-555.6	44.981	357.31	NaN	NaN	NaN	-363.11	43.8	275.37	-296.61	56.565	320.73	-321.96	709.77	130.72	-203.83	666.82	143.95	-267.09	637.63	145.06	-255.05	737.88	124.32	-219.45	558.89	158.92	-200.88	556.87	282.62	-316.44	406.8	157.88	-274.86	303.63	167.94	-338.12	337.25	171.01	-258.3	377.33	155.81	-366.59	166.86	175.9	-332.19	162.18	257.73	-420.11	150.49	229.19	-413.09	114.2	258.37	-423.52	123.18	195.64	-261.8	68.662	145.78	-230.26	66.974	256.24	-170.2	69.136	201.72	-481.13	1530.6	315.87	-525.86	1249.3	322.72
201	0.83333	-288.22	1237.9	297.97	-393.51	1473.9	482.13	-427.38	1501.3	149.29	-396.16	1791.7	338.2	-313.57	1026	415.99	-321.65	1025.2	186.19	-516.71	1045.8	344.43	-516.74	1046.8	251.25	-379.15	916.03	487.86	-398	914.16	116.95	-408.39	1093.7	462.69	-417.26	1103.3	155.24	-532.39	1004.6	298.37	-415.03	714.58	468.36	-345.55	614.8	423.85	-413.94	625.97	446.19	-338.13	706.75	448.6	-390.9	519.05	416.4	-427.01	528.76	293.62	-477.81	341.25	422.22	-425.52	274.67	392.83	-487.43	265.46	410.12	-415.48	350.99	405.65	-508.46	102.57	365.47	-485.41	116.62	287.96	-562.39	68.294	322.08	-552.44	40.189	295.46	-555.53	45.168	357.15	NaN	NaN	NaN	-363	43.746	275.35	-296.48	56.359	320.82	-316.45	709.92	130.73	-198.34	666.96	144.19	-261.61	637.8	145.24	-249.52	738.01	124.4	-213.61	559.08	159.27	-195.69	557.17	282.78	-306.95	404.05	157.71	-262.57	302.1	168.04	-326.72	333.93	170.88	-248.02	376.21	155.89	-350.38	162.7	175.73	-315.8	158.95	257.66	-403.4	144.71	229.02	-395.36	108.7	258.26	-406.05	117.29	195.56	-242.76	67.387	145.84	-211.16	66.836	256.33	-151.22	70.57	201.79	-475.8	1530.4	315.85	-520.6	1249.1	322.77
